<svg width="573" height="574" viewBox="0 0 573 574" fill="none" xmlns="http://www.w3.org/2000/svg">
<mask id="mask0_2268_331" style="mask-type:luminance" maskUnits="userSpaceOnUse" x="0" y="0" width="573" height="574">
<path d="M572.785 376.952L196.073 0L2.26343e-05 196.198L376.712 573.15L572.785 376.952Z" fill="url(#paint0_linear_2268_331)"/>
</mask>
<g mask="url(#mask0_2268_331)">
<g style="mix-blend-mode:color-dodge">
<path opacity="0.21" d="M320.431 218.814L326.067 224.454C328.358 226.746 332.068 226.746 334.351 224.454L339.988 218.814H320.431Z" fill="#757575"/>
<path opacity="0.54" d="M372.814 218.814H356.658L342.69 232.791C340.399 235.083 340.399 238.795 342.69 241.08L360.594 258.996C362.884 261.288 366.594 261.288 368.878 258.996L386.782 241.08C389.072 238.788 389.072 235.076 386.782 232.791L372.814 218.814Z" fill="#757575"/>
<path opacity="0.27" d="M377.209 275.629L392.193 290.622V252.347L377.209 267.34C374.919 269.632 374.919 273.344 377.209 275.629Z" fill="#757575"/>
<path opacity="0.7" d="M253.593 218.814L258.125 223.35C260.416 225.641 264.125 225.641 266.409 223.35L270.942 218.814H253.586H253.593Z" fill="#757575"/>
<path opacity="0.16" d="M305.969 218.814H287.605L274.741 231.686C272.45 233.978 272.45 237.69 274.741 239.975L292.645 257.891C294.935 260.183 298.645 260.183 300.929 257.891L318.833 239.975C321.123 237.684 321.123 233.971 318.833 231.686L305.969 218.814Z" fill="#757575"/>
<path opacity="0.25" d="M327.173 248.311L309.266 266.229C306.979 268.518 306.979 272.228 309.266 274.517L327.173 292.435C329.46 294.723 333.168 294.723 335.455 292.435L353.362 274.517C355.649 272.228 355.649 268.518 353.362 266.229L335.455 248.311C333.168 246.023 329.46 246.023 327.173 248.311Z" fill="#757575"/>
<path opacity="0.36" d="M361.698 282.864L343.792 300.783C341.505 303.071 341.505 306.781 343.792 309.07L361.698 326.988C363.985 329.276 367.693 329.276 369.98 326.988L387.887 309.07C390.174 306.781 390.174 303.071 387.887 300.783L369.98 282.864C367.693 280.576 363.985 280.576 361.698 282.864Z" fill="#757575"/>
<path opacity="0.37" d="M378.313 343.614L392.193 357.503V321.431L378.313 335.319C376.023 337.611 376.023 341.323 378.313 343.608V343.614Z" fill="#757575"/>
<path opacity="0.1" d="M186.748 218.814L190.176 222.245C192.467 224.537 196.176 224.537 198.46 222.245L201.888 218.814H186.741H186.748Z" fill="#757575"/>
<path opacity="0.77" d="M239.131 218.814H218.565L206.798 230.589C204.508 232.88 204.508 236.593 206.798 238.878L224.703 256.793C226.993 259.085 230.703 259.085 232.986 256.793L250.891 238.878C253.181 236.586 253.181 232.874 250.891 230.589L239.131 218.814Z" fill="#757575"/>
<path opacity="0.6" d="M259.232 247.218L241.325 265.136C239.038 267.424 239.038 271.134 241.325 273.423L259.232 291.341C261.519 293.63 265.227 293.629 267.513 291.341L285.42 273.423C287.707 271.134 287.707 267.424 285.42 265.136L267.513 247.218C265.227 244.929 261.519 244.929 259.232 247.218Z" fill="#757575"/>
<path opacity="0.47" d="M293.75 281.761L275.844 299.679C273.557 301.968 273.557 305.678 275.844 307.966L293.75 325.885C296.037 328.173 299.745 328.173 302.032 325.885L319.939 307.966C322.226 305.678 322.226 301.968 319.939 299.679L302.032 281.761C299.745 279.473 296.037 279.473 293.75 281.761Z" fill="#757575"/>
<path opacity="0.69" d="M328.276 316.307L310.369 334.226C308.082 336.514 308.082 340.224 310.369 342.513L328.276 360.431C330.563 362.719 334.271 362.719 336.558 360.431L354.465 342.513C356.752 340.224 356.752 336.514 354.465 334.226L336.558 316.307C334.271 314.019 330.563 314.019 328.276 316.307Z" fill="#757575"/>
<path opacity="0.84" d="M390.314 370.814C390.026 370.066 389.587 369.373 388.99 368.769L371.086 350.853C368.795 348.561 365.086 348.561 362.802 350.853L344.898 368.769C344.301 369.366 343.862 370.066 343.574 370.814H390.321H390.314Z" fill="#757575"/>
<path opacity="0.54" d="M119.909 218.814L122.241 221.147C124.531 223.439 128.241 223.439 130.524 221.147L132.856 218.814H119.909Z" fill="#757575"/>
<path opacity="0.19" d="M172.285 218.814H149.512L138.849 229.484C136.559 231.776 136.559 235.488 138.849 237.773L156.754 255.689C159.044 257.98 162.754 257.98 165.037 255.689L182.942 237.773C185.232 235.481 185.232 231.769 182.942 229.484L172.285 218.814Z" fill="#757575"/>
<path opacity="0.96" d="M191.283 246.114L173.377 264.032C171.09 266.32 171.09 270.03 173.377 272.319L191.283 290.237C193.57 292.525 197.278 292.526 199.565 290.237L217.472 272.319C219.759 270.03 219.759 266.32 217.472 264.032L199.565 246.114C197.278 243.825 193.57 243.825 191.283 246.114Z" fill="#757575"/>
<path opacity="0.99" d="M225.804 280.656L207.897 298.574C205.61 300.862 205.61 304.572 207.897 306.861L225.804 324.779C228.091 327.067 231.799 327.067 234.086 324.779L251.993 306.861C254.28 304.572 254.28 300.862 251.993 298.574L234.086 280.656C231.799 278.367 228.091 278.367 225.804 280.656Z" fill="#757575"/>
<path opacity="0.06" d="M260.328 315.204L242.421 333.122C240.134 335.41 240.134 339.121 242.421 341.409L260.328 359.327C262.615 361.616 266.323 361.616 268.61 359.327L286.516 341.409C288.803 339.121 288.803 335.41 286.516 333.122L268.61 315.204C266.323 312.915 262.615 312.915 260.328 315.204Z" fill="#757575"/>
<path opacity="0.41" d="M322.673 370.814C322.474 369.661 321.939 368.556 321.048 367.664L303.144 349.749C300.853 347.457 297.143 347.457 294.86 349.749L276.955 367.664C276.064 368.556 275.529 369.661 275.33 370.814H322.68H322.673Z" fill="#757575"/>
<path opacity="0.24" d="M105.447 218.814H80.466L70.9069 228.379C68.6166 230.671 68.6166 234.383 70.9069 236.668L88.8113 254.584C91.1017 256.876 94.8115 256.876 97.095 254.584L114.999 236.668C117.29 234.376 117.29 230.664 114.999 228.379L105.447 218.814Z" fill="#757575"/>
<path opacity="0.71" d="M123.337 245.008L105.431 262.926C103.144 265.215 103.144 268.925 105.431 271.213L123.337 289.132C125.624 291.42 129.332 291.42 131.619 289.132L149.526 271.213C151.813 268.925 151.813 265.215 149.526 262.926L131.619 245.008C129.332 242.72 125.624 242.72 123.337 245.008Z" fill="#757575"/>
<path opacity="0.13" d="M157.861 279.557L139.954 297.475C137.667 299.764 137.667 303.474 139.954 305.762L157.861 323.68C160.148 325.969 163.856 325.969 166.143 323.68L184.05 305.762C186.337 303.474 186.337 299.764 184.05 297.475L166.143 279.557C163.856 277.268 160.148 277.268 157.861 279.557Z" fill="#757575"/>
<path opacity="0.22" d="M192.387 314.093L174.48 332.012C172.193 334.3 172.193 338.01 174.48 340.299L192.387 358.217C194.674 360.505 198.381 360.505 200.668 358.217L218.575 340.299C220.862 338.01 220.862 334.3 218.575 332.012L200.668 314.093C198.381 311.805 194.674 311.805 192.387 314.093Z" fill="#757575"/>
<path opacity="0.81" d="M254.806 370.814C254.834 369.277 254.265 367.733 253.099 366.566L235.194 348.65C232.904 346.359 229.194 346.359 226.911 348.65L209.006 366.566C207.834 367.74 207.271 369.284 207.299 370.814H254.813H254.806Z" fill="#757575"/>
</g>
</g>
<defs>
<linearGradient id="paint0_linear_2268_331" x1="278.232" y1="294.746" x2="201.736" y2="371.193" gradientUnits="userSpaceOnUse">
<stop offset="0.11" stop-color="white"/>
<stop offset="0.2" stop-color="#CECECE"/>
<stop offset="0.32" stop-color="#989898"/>
<stop offset="0.44" stop-color="#696969"/>
<stop offset="0.55" stop-color="#434343"/>
<stop offset="0.67" stop-color="#262626"/>
<stop offset="0.78" stop-color="#101010"/>
<stop offset="0.89" stop-color="#040404"/>
<stop offset="1"/>
</linearGradient>
</defs>
</svg>
