<svg width="799" height="799" viewBox="0 0 799 799" fill="none" xmlns="http://www.w3.org/2000/svg">
<mask id="mask0_2267_439" style="mask-type:luminance" maskUnits="userSpaceOnUse" x="136" y="262" width="527" height="275">
<path d="M661.789 263.038L136.499 262.252L136.908 535.658L662.198 536.444L661.789 263.038Z" fill="url(#paint0_linear_2267_439)"/>
</mask>
<g mask="url(#mask0_2267_439)">
<g style="mix-blend-mode:color-dodge">
<path opacity="0.21" d="M554.403 380.548L554.392 372.689C554.387 369.495 556.97 366.912 560.158 366.922L568.018 366.934L554.403 380.548Z" fill="#959595"/>
<path opacity="0.54" d="M590.87 344.082L579.623 355.329L560.146 355.299C556.952 355.295 554.362 352.704 554.362 349.515L554.324 324.549C554.32 321.356 556.902 318.773 560.091 318.783L585.057 318.82C588.251 318.825 590.841 321.415 590.841 324.604L590.87 344.082Z" fill="#959595"/>
<path opacity="0.27" d="M554.285 301.376L554.254 280.483L580.962 307.191L560.069 307.16C556.875 307.155 554.285 304.565 554.285 301.376Z" fill="#959595"/>
<path opacity="0.7" d="M507.873 427.079L507.864 420.758C507.859 417.565 510.442 414.982 513.631 414.992L519.951 415.001L507.869 427.084L507.873 427.079Z" fill="#959595"/>
<path opacity="0.16" d="M544.336 390.617L531.551 403.401L513.613 403.374C510.42 403.369 507.829 400.779 507.829 397.59L507.792 372.624C507.787 369.43 510.37 366.848 513.559 366.857L538.525 366.895C541.718 366.899 544.309 369.49 544.309 372.679L544.336 390.617Z" fill="#959595"/>
<path opacity="0.25" d="M538.514 355.272L513.544 355.234C510.355 355.23 507.766 352.641 507.762 349.452L507.724 324.482C507.719 321.293 510.301 318.712 513.49 318.717L538.459 318.754C541.648 318.759 544.237 321.348 544.242 324.537L544.279 349.506C544.284 352.695 541.703 355.277 538.514 355.272Z" fill="#959595"/>
<path opacity="0.36" d="M538.438 307.125L513.468 307.088C510.279 307.083 507.69 304.494 507.686 301.305L507.648 276.336C507.643 273.147 510.225 270.565 513.414 270.57L538.383 270.608C541.572 270.612 544.161 273.201 544.166 276.39L544.203 301.36C544.208 304.549 541.627 307.13 538.438 307.125Z" fill="#959595"/>
<path opacity="0.37" d="M507.613 253.167L507.584 233.814L532.755 258.985L513.402 258.956C510.208 258.951 507.618 256.361 507.618 253.172L507.613 253.167Z" fill="#959595"/>
<path opacity="0.1" d="M461.338 473.614L461.331 468.833C461.326 465.639 463.909 463.056 467.098 463.066L471.879 463.073L461.334 473.618L461.338 473.614Z" fill="#959595"/>
<path opacity="0.77" d="M497.805 437.147L483.489 451.464L467.081 451.439C463.887 451.434 461.297 448.844 461.297 445.655L461.259 420.689C461.254 417.495 463.837 414.913 467.026 414.922L491.992 414.96C495.186 414.964 497.776 417.555 497.776 420.744L497.805 437.147Z" fill="#959595"/>
<path opacity="0.6" d="M491.979 403.333L467.01 403.296C463.821 403.291 461.232 400.702 461.227 397.513L461.19 372.544C461.185 369.355 463.766 366.773 466.955 366.778L491.924 366.816C495.113 366.82 497.702 369.409 497.707 372.598L497.745 397.568C497.749 400.757 495.168 403.338 491.979 403.333Z" fill="#959595"/>
<path opacity="0.47" d="M491.905 355.198L466.936 355.161C463.747 355.156 461.158 352.567 461.153 349.378L461.115 324.408C461.111 321.22 463.692 318.638 466.881 318.643L491.85 318.68C495.039 318.685 497.628 321.274 497.633 324.463L497.671 349.433C497.675 352.621 495.094 355.203 491.905 355.198Z" fill="#959595"/>
<path opacity="0.69" d="M491.834 307.056L466.864 307.019C463.675 307.014 461.086 304.425 461.081 301.236L461.044 276.266C461.039 273.077 463.621 270.496 466.81 270.501L491.779 270.538C494.968 270.543 497.557 273.132 497.562 276.321L497.599 301.29C497.604 304.479 495.023 307.061 491.834 307.056Z" fill="#959595"/>
<path opacity="0.84" d="M496.987 225.833C497.309 226.555 497.487 227.345 497.493 228.181L497.53 253.147C497.535 256.341 494.952 258.924 491.763 258.914L466.797 258.877C465.965 258.875 465.171 258.693 464.449 258.371L496.992 225.828L496.987 225.833Z" fill="#959595"/>
<path opacity="0.54" d="M414.808 520.144L414.803 516.893C414.799 513.699 417.381 511.116 420.57 511.126L423.821 511.131L414.808 520.144Z" fill="#959595"/>
<path opacity="0.19" d="M451.27 483.682L435.417 499.535L420.548 499.513C417.354 499.508 414.764 496.918 414.764 493.729L414.727 468.763C414.722 465.569 417.304 462.987 420.493 462.996L445.459 463.034C448.653 463.038 451.243 465.629 451.243 468.818L451.27 483.682Z" fill="#959595"/>
<path opacity="0.96" d="M445.446 451.406L420.477 451.369C417.288 451.364 414.699 448.775 414.694 445.586L414.657 420.616C414.652 417.428 417.233 414.846 420.422 414.851L445.392 414.888C448.581 414.893 451.17 417.482 451.174 420.671L451.212 445.641C451.217 448.829 448.635 451.411 445.446 451.406Z" fill="#959595"/>
<path opacity="0.99" d="M445.375 403.271L420.406 403.233C417.217 403.229 414.628 400.64 414.623 397.451L414.585 372.481C414.581 369.292 417.162 366.711 420.351 366.716L445.32 366.753C448.509 366.758 451.098 369.347 451.103 372.536L451.14 397.505C451.145 400.694 448.564 403.276 445.375 403.271Z" fill="#959595"/>
<path opacity="0.06" d="M445.301 355.129L420.332 355.091C417.143 355.087 414.554 352.498 414.549 349.309L414.511 324.339C414.507 321.15 417.088 318.569 420.277 318.574L445.246 318.611C448.435 318.616 451.024 321.205 451.029 324.394L451.066 349.363C451.071 352.552 448.49 355.133 445.301 355.129Z" fill="#959595"/>
<path opacity="0.41" d="M449.898 272.922C450.564 273.865 450.963 275.008 450.965 276.251L451.002 301.217C451.007 304.411 448.424 306.993 445.235 306.984L420.269 306.946C419.026 306.945 417.883 306.546 416.94 305.88L449.903 272.917L449.898 272.922Z" fill="#959595"/>
<path opacity="0.24" d="M404.74 530.212L387.349 547.603L374.02 547.583C370.826 547.578 368.236 544.988 368.236 541.799L368.199 516.833C368.194 513.639 370.777 511.056 373.965 511.066L398.932 511.103C402.125 511.108 404.716 513.698 404.716 516.887L404.74 530.212Z" fill="#959595"/>
<path opacity="0.71" d="M398.916 499.479L373.947 499.442C370.758 499.437 368.169 496.848 368.164 493.659L368.127 468.69C368.122 465.501 370.703 462.919 373.892 462.924L398.862 462.962C402.051 462.966 404.64 465.555 404.645 468.744L404.682 493.714C404.687 496.903 402.105 499.484 398.916 499.479Z" fill="#959595"/>
<path opacity="0.13" d="M398.842 451.337L373.873 451.3C370.684 451.295 368.095 448.706 368.09 445.517L368.053 420.548C368.048 417.359 370.629 414.777 373.818 414.782L398.788 414.82C401.976 414.824 404.566 417.413 404.57 420.602L404.608 445.572C404.612 448.761 402.031 451.342 398.842 451.337Z" fill="#959595"/>
<path opacity="0.22" d="M398.778 403.202L373.808 403.165C370.619 403.16 368.03 400.571 368.026 397.382L367.988 372.412C367.983 369.223 370.565 366.642 373.754 366.647L398.723 366.684C401.912 366.689 404.501 369.278 404.506 372.467L404.543 397.436C404.548 400.625 401.967 403.207 398.778 403.202Z" fill="#959595"/>
<path opacity="0.81" d="M402.652 320.168C403.744 321.221 404.425 322.695 404.427 324.32L404.465 349.287C404.47 352.48 401.887 355.063 398.698 355.053L373.732 355.016C372.097 355.013 370.628 354.328 369.579 353.241L402.657 320.163L402.652 320.168Z" fill="#959595"/>
</g>
</g>
<defs>
<linearGradient id="paint0_linear_2267_439" x1="399.369" y1="410.731" x2="399.209" y2="517.329" gradientUnits="userSpaceOnUse">
<stop offset="0.11" stop-color="white"/>
<stop offset="0.2" stop-color="#CECECE"/>
<stop offset="0.32" stop-color="#989898"/>
<stop offset="0.44" stop-color="#696969"/>
<stop offset="0.55" stop-color="#434343"/>
<stop offset="0.67" stop-color="#262626"/>
<stop offset="0.78" stop-color="#101010"/>
<stop offset="0.89" stop-color="#040404"/>
<stop offset="1"/>
</linearGradient>
</defs>
</svg>
