<svg width="995" height="995" viewBox="0 0 995 995" fill="none" xmlns="http://www.w3.org/2000/svg">
<mask id="mask0_2267_613" style="mask-type:luminance" maskUnits="userSpaceOnUse" x="135" y="360" width="524" height="273">
<path d="M658.781 360.079L136.069 360.222L135.995 632.285L658.707 632.143L658.781 360.079Z" fill="url(#paint0_linear_2267_613)"/>
</mask>
<g mask="url(#mask0_2267_613)">
<g style="mix-blend-mode:color-dodge">
<path opacity="0.21" d="M374.041 425.592L381.862 425.59C385.04 425.589 387.615 423.015 387.611 419.841L387.613 412.02L374.041 425.592Z" fill="#757575"/>
<path opacity="0.54" d="M410.393 389.24L399.182 400.452L399.176 419.834C399.175 423.012 401.749 425.585 404.922 425.579L429.765 425.572C432.943 425.571 435.518 422.997 435.514 419.824L435.521 394.98C435.522 391.802 432.949 389.229 429.775 389.235L410.393 389.24Z" fill="#757575"/>
<path opacity="0.27" d="M452.825 425.571L473.615 425.565L447.085 399.035L447.079 419.825C447.079 423.003 449.652 425.576 452.825 425.571Z" fill="#757575"/>
<path opacity="0.7" d="M327.657 471.976L333.946 471.974C337.124 471.973 339.699 469.399 339.695 466.226L339.697 459.936L327.652 471.981L327.657 471.976Z" fill="#757575"/>
<path opacity="0.16" d="M364.005 435.629L351.261 448.373L351.256 466.223C351.255 469.401 353.828 471.974 357.001 471.968L381.845 471.961C385.023 471.96 387.597 469.386 387.593 466.213L387.6 441.369C387.601 438.191 385.028 435.618 381.855 435.624L364.005 435.629Z" fill="#757575"/>
<path opacity="0.25" d="M399.166 441.359L399.159 466.206C399.158 469.38 401.73 471.951 404.903 471.95L429.75 471.944C432.923 471.943 435.497 469.37 435.497 466.196L435.504 441.349C435.505 438.176 432.933 435.604 429.76 435.605L404.913 435.612C401.74 435.613 399.167 438.186 399.166 441.359Z" fill="#757575"/>
<path opacity="0.36" d="M447.076 441.35L447.07 466.197C447.069 469.37 449.64 471.942 452.814 471.941L477.661 471.934C480.834 471.934 483.407 469.36 483.408 466.187L483.415 441.34C483.416 438.167 480.844 435.595 477.671 435.596L452.824 435.603C449.65 435.604 447.077 438.177 447.076 441.35Z" fill="#757575"/>
<path opacity="0.37" d="M500.715 471.929L519.974 471.923L494.97 446.92L494.965 466.178C494.964 469.356 497.537 471.93 500.711 471.924L500.715 471.929Z" fill="#757575"/>
<path opacity="0.1" d="M281.269 518.364L286.026 518.363C289.204 518.362 291.779 515.788 291.775 512.614L291.776 507.857L281.264 518.369L281.269 518.364Z" fill="#757575"/>
<path opacity="0.6" d="M351.258 487.751L351.251 512.597C351.251 515.771 353.822 518.342 356.996 518.342L381.843 518.335C385.016 518.334 387.589 515.761 387.59 512.587L387.597 487.741C387.598 484.567 385.026 481.995 381.852 481.996L357.006 482.003C353.832 482.004 351.259 484.577 351.258 487.751Z" fill="#757575"/>
<path opacity="0.47" d="M399.157 487.739L399.15 512.586C399.15 515.759 401.721 518.331 404.895 518.33L429.742 518.324C432.915 518.323 435.488 515.75 435.489 512.576L435.496 487.729C435.497 484.556 432.925 481.984 429.752 481.985L404.905 481.992C401.731 481.993 399.158 484.566 399.157 487.739Z" fill="#757575"/>
<path opacity="0.69" d="M447.063 487.726L447.056 512.572C447.055 515.746 449.627 518.318 452.8 518.317L477.647 518.31C480.821 518.309 483.394 515.736 483.395 512.563L483.401 487.716C483.402 484.542 480.831 481.971 477.657 481.971L452.81 481.978C449.637 481.979 447.064 484.552 447.063 487.726Z" fill="#757575"/>
<path opacity="0.84" d="M527.897 482.454C527.178 482.136 526.393 481.96 525.561 481.956L500.717 481.962C497.539 481.963 494.965 484.538 494.969 487.711L494.962 512.555C494.962 513.382 495.142 514.172 495.461 514.89L527.901 482.45L527.897 482.454Z" fill="#757575"/>
<path opacity="0.54" d="M234.885 564.748L238.12 564.748C241.298 564.747 243.872 562.172 243.868 558.999L243.869 555.764L234.885 564.748Z" fill="#757575"/>
<path opacity="0.19" d="M271.232 528.401L255.428 544.205L255.424 559.001C255.423 562.179 257.997 564.752 261.17 564.746L286.013 564.739C289.191 564.738 291.766 562.164 291.762 558.991L291.769 534.147C291.77 530.969 289.197 528.396 286.023 528.402L271.232 528.401Z" fill="#757575"/>
<path opacity="0.96" d="M303.339 534.14L303.333 558.987C303.332 562.16 305.903 564.732 309.077 564.731L333.924 564.724C337.097 564.723 339.67 562.15 339.671 558.977L339.678 534.13C339.679 530.956 337.107 528.385 333.934 528.386L309.087 528.392C305.913 528.393 303.34 530.966 303.339 534.14Z" fill="#757575"/>
<path opacity="0.99" d="M351.238 534.125L351.232 558.972C351.231 562.146 353.802 564.717 356.976 564.717L381.823 564.71C384.996 564.709 387.569 562.136 387.57 558.962L387.577 534.116C387.578 530.942 385.006 528.37 381.833 528.371L356.986 528.378C353.812 528.379 351.239 530.952 351.238 534.125Z" fill="#757575"/>
<path opacity="0.06" d="M399.144 534.115L399.137 558.962C399.136 562.135 401.708 564.707 404.881 564.706L429.728 564.699C432.902 564.698 435.475 562.125 435.476 558.952L435.482 534.105C435.483 530.932 432.912 528.36 429.738 528.361L404.891 528.367C401.718 528.368 399.145 530.941 399.144 534.115Z" fill="#757575"/>
<path opacity="0.41" d="M480.956 529.395C480.019 528.734 478.882 528.339 477.645 528.339L452.802 528.346C449.624 528.347 447.049 530.922 447.053 534.095L447.046 558.938C447.046 560.175 447.44 561.312 448.101 562.249L480.961 529.39L480.956 529.395Z" fill="#757575"/>
<path opacity="0.24" d="M224.848 574.785L207.512 592.121L207.509 605.385C207.508 608.563 210.081 611.136 213.254 611.13L238.098 611.123C241.276 611.123 243.85 608.548 243.846 605.375L243.853 580.531C243.854 577.353 241.281 574.78 238.108 574.786L224.848 574.785Z" fill="#757575"/>
<path opacity="0.71" d="M255.42 580.526L255.413 605.373C255.413 608.546 257.984 611.118 261.158 611.117L286.005 611.11C289.178 611.109 291.751 608.536 291.752 605.363L291.759 580.516C291.76 577.343 289.188 574.771 286.014 574.772L261.168 574.779C257.994 574.779 255.421 577.353 255.42 580.526Z" fill="#757575"/>
<path opacity="0.13" d="M303.326 580.515L303.319 605.362C303.318 608.535 305.89 611.107 309.063 611.106L333.91 611.099C337.084 611.098 339.657 608.525 339.658 605.352L339.664 580.505C339.665 577.331 337.094 574.76 333.92 574.761L309.073 574.767C305.9 574.768 303.327 577.341 303.326 580.515Z" fill="#757575"/>
<path opacity="0.22" d="M351.225 580.494L351.218 605.341C351.217 608.514 353.789 611.086 356.962 611.085L381.809 611.078C384.983 611.078 387.556 608.504 387.557 605.331L387.563 580.484C387.564 577.311 384.993 574.739 381.819 574.74L356.972 574.747C353.799 574.748 351.226 577.321 351.225 580.494Z" fill="#757575"/>
<path opacity="0.81" d="M433.858 576.492C432.812 575.408 431.347 574.733 429.729 574.733L404.886 574.74C401.708 574.741 399.133 577.315 399.137 580.489L399.13 605.332C399.13 606.959 399.81 608.42 400.89 609.461L433.863 576.488L433.858 576.492Z" fill="#757575"/>
</g>
</g>
<mask id="mask1_2267_613" style="mask-type:luminance" maskUnits="userSpaceOnUse" x="335" y="361" width="524" height="273">
<path d="M858.064 361.773L335.352 361.916L335.277 633.98L857.99 633.837L858.064 361.773Z" fill="url(#paint1_linear_2267_613)"/>
</mask>
<g mask="url(#mask1_2267_613)">
<g style="mix-blend-mode:color-dodge">
<path opacity="0.21" d="M573.324 427.287L581.145 427.284C584.323 427.283 586.898 424.709 586.894 421.536L586.896 413.714L573.324 427.287Z" fill="#757575"/>
<path opacity="0.54" d="M609.676 390.934L598.464 402.146L598.459 421.528C598.458 424.706 601.031 427.279 604.205 427.273L629.048 427.267C632.226 427.266 634.801 424.691 634.797 421.518L634.804 396.674C634.804 393.496 632.231 390.923 629.058 390.929L609.676 390.934Z" fill="#757575"/>
<path opacity="0.27" d="M652.108 427.265L672.898 427.259L646.368 400.729L646.362 421.519C646.361 424.697 648.934 427.27 652.108 427.265Z" fill="#757575"/>
<path opacity="0.16" d="M563.288 437.323L550.544 450.067L550.539 467.917C550.538 471.095 553.111 473.668 556.284 473.662L581.128 473.656C584.306 473.655 586.88 471.08 586.876 467.907L586.883 443.063C586.884 439.885 584.311 437.312 581.138 437.318L563.288 437.323Z" fill="#757575"/>
<path opacity="0.25" d="M598.449 443.054L598.442 467.901C598.441 471.074 601.013 473.646 604.186 473.645L629.033 473.638C632.206 473.637 634.779 471.064 634.78 467.891L634.787 443.044C634.788 439.87 632.216 437.299 629.043 437.3L604.196 437.306C601.023 437.307 598.449 439.88 598.449 443.054Z" fill="#757575"/>
<path opacity="0.36" d="M646.359 443.044L646.352 467.891C646.351 471.065 648.923 473.636 652.097 473.636L676.943 473.629C680.117 473.628 682.69 471.055 682.691 467.881L682.698 443.035C682.698 439.861 680.127 437.289 676.953 437.29L652.106 437.297C648.933 437.298 646.36 439.871 646.359 443.044Z" fill="#757575"/>
<path opacity="0.37" d="M699.998 473.623L719.256 473.618L694.253 448.615L694.248 467.873C694.247 471.051 696.82 473.624 699.993 473.618L699.998 473.623Z" fill="#757575"/>
<path opacity="0.1" d="M480.551 520.059L485.309 520.058C488.487 520.057 491.061 517.482 491.057 514.309L491.059 509.552L480.547 520.064L480.551 520.059Z" fill="#757575"/>
<path opacity="0.77" d="M513.133 482.05L498.861 496.321L498.857 512.649C498.856 515.827 501.429 518.4 504.602 518.395L529.446 518.388C532.624 518.387 535.199 515.812 535.195 512.639L535.201 487.796C535.202 484.618 532.629 482.045 529.456 482.05L513.133 482.05Z" fill="#757575"/>
<path opacity="0.6" d="M550.541 489.445L550.534 514.292C550.533 517.465 553.105 520.037 556.279 520.036L581.125 520.029C584.299 520.028 586.872 517.455 586.873 514.282L586.88 489.435C586.88 486.262 584.309 483.69 581.135 483.691L556.288 483.697C553.115 483.698 550.542 486.272 550.541 489.445Z" fill="#757575"/>
<path opacity="0.47" d="M598.44 489.434L598.433 514.28C598.432 517.454 601.004 520.026 604.178 520.025L629.024 520.018C632.198 520.017 634.771 517.444 634.772 514.271L634.779 489.424C634.779 486.25 632.208 483.679 629.034 483.679L604.187 483.686C601.014 483.687 598.441 486.26 598.44 489.434Z" fill="#757575"/>
<path opacity="0.69" d="M646.346 489.42L646.339 514.267C646.338 517.44 648.91 520.012 652.083 520.011L676.93 520.004C680.103 520.003 682.677 517.43 682.677 514.257L682.684 489.41C682.685 486.237 680.113 483.665 676.94 483.666L652.093 483.673C648.92 483.673 646.347 486.247 646.346 489.42Z" fill="#757575"/>
<path opacity="0.84" d="M727.179 484.149C726.461 483.83 725.676 483.654 724.844 483.65L700 483.657C696.822 483.658 694.248 486.232 694.251 489.405L694.245 514.249C694.244 515.077 694.425 515.866 694.744 516.585L727.184 484.144L727.179 484.149Z" fill="#757575"/>
<path opacity="0.54" d="M434.167 566.443L437.403 566.442C440.581 566.441 443.155 563.866 443.151 560.693L443.152 557.458L434.167 566.443Z" fill="#757575"/>
<path opacity="0.19" d="M470.515 530.095L454.711 545.899L454.707 560.695C454.706 563.873 457.279 566.446 460.453 566.44L485.296 566.434C488.474 566.433 491.049 563.858 491.045 560.685L491.052 535.841C491.052 532.663 488.479 530.09 485.306 530.096L470.515 530.095Z" fill="#757575"/>
<path opacity="0.96" d="M502.622 535.834L502.615 560.681C502.614 563.854 505.186 566.426 508.359 566.425L533.206 566.418C536.38 566.417 538.953 563.844 538.954 560.671L538.96 535.824C538.961 532.651 536.39 530.079 533.216 530.08L508.369 530.087C505.196 530.088 502.623 532.661 502.622 535.834Z" fill="#757575"/>
<path opacity="0.99" d="M550.521 535.82L550.514 560.667C550.513 563.84 553.085 566.412 556.258 566.411L581.105 566.405C584.279 566.404 586.852 563.831 586.853 560.657L586.859 535.81C586.86 532.637 584.289 530.065 581.115 530.066L556.268 530.073C553.095 530.074 550.522 532.647 550.521 535.82Z" fill="#757575"/>
<path opacity="0.06" d="M598.427 535.809L598.42 560.656C598.419 563.829 600.991 566.401 604.164 566.4L629.011 566.393C632.184 566.393 634.758 563.819 634.758 560.646L634.765 535.799C634.766 532.626 632.194 530.054 629.021 530.055L604.174 530.062C601.001 530.063 598.428 532.636 598.427 535.809Z" fill="#757575"/>
<path opacity="0.41" d="M680.239 531.089C679.302 530.428 678.165 530.033 676.928 530.034L652.084 530.041C648.906 530.041 646.332 532.616 646.336 535.789L646.329 560.633C646.329 561.87 646.723 563.007 647.384 563.944L680.244 531.084L680.239 531.089Z" fill="#757575"/>
<path opacity="0.24" d="M424.131 576.479L406.795 593.815L406.791 607.079C406.79 610.257 409.364 612.83 412.537 612.825L437.38 612.818C440.558 612.817 443.133 610.242 443.129 607.069L443.136 582.226C443.137 579.048 440.564 576.474 437.39 576.48L424.131 576.479Z" fill="#757575"/>
<path opacity="0.71" d="M454.703 582.22L454.696 607.067C454.695 610.24 457.267 612.812 460.44 612.811L485.287 612.805C488.461 612.804 491.034 610.23 491.035 607.057L491.041 582.21C491.042 579.037 488.471 576.465 485.297 576.466L460.45 576.473C457.277 576.474 454.704 579.047 454.703 582.22Z" fill="#757575"/>
<path opacity="0.13" d="M502.609 582.209L502.602 607.056C502.601 610.23 505.173 612.801 508.346 612.801L533.193 612.794C536.366 612.793 538.94 610.22 538.94 607.046L538.947 582.2C538.948 579.026 536.376 576.454 533.203 576.455L508.356 576.462C505.183 576.463 502.61 579.036 502.609 582.209Z" fill="#757575"/>
<path opacity="0.22" d="M550.508 582.188L550.501 607.035C550.5 610.209 553.072 612.78 556.245 612.78L581.092 612.773C584.265 612.772 586.839 610.199 586.839 607.025L586.846 582.179C586.847 579.005 584.275 576.433 581.102 576.434L556.255 576.441C553.082 576.442 550.509 579.015 550.508 582.188Z" fill="#757575"/>
<path opacity="0.81" d="M633.141 578.187C632.095 577.102 630.63 576.427 629.012 576.428L604.169 576.434C600.991 576.435 598.416 579.01 598.42 582.183L598.413 607.027C598.413 608.654 599.093 610.114 600.172 611.156L633.146 578.182L633.141 578.187Z" fill="#757575"/>
</g>
</g>
<defs>
<linearGradient id="paint0_linear_2267_613" x1="397.388" y1="507.509" x2="397.417" y2="613.584" gradientUnits="userSpaceOnUse">
<stop offset="0.11" stop-color="white"/>
<stop offset="0.2" stop-color="#CECECE"/>
<stop offset="0.32" stop-color="#989898"/>
<stop offset="0.44" stop-color="#696969"/>
<stop offset="0.55" stop-color="#434343"/>
<stop offset="0.67" stop-color="#262626"/>
<stop offset="0.78" stop-color="#101010"/>
<stop offset="0.89" stop-color="#040404"/>
<stop offset="1"/>
</linearGradient>
<linearGradient id="paint1_linear_2267_613" x1="596.671" y1="509.203" x2="596.7" y2="615.278" gradientUnits="userSpaceOnUse">
<stop offset="0.11" stop-color="white"/>
<stop offset="0.2" stop-color="#CECECE"/>
<stop offset="0.32" stop-color="#989898"/>
<stop offset="0.44" stop-color="#696969"/>
<stop offset="0.55" stop-color="#434343"/>
<stop offset="0.67" stop-color="#262626"/>
<stop offset="0.78" stop-color="#101010"/>
<stop offset="0.89" stop-color="#040404"/>
<stop offset="1"/>
</linearGradient>
</defs>
</svg>
