<svg width="63" height="46" viewBox="0 0 63 46" fill="none" xmlns="http://www.w3.org/2000/svg">
<g clip-path="url(#clip0_2267_504)">
<path d="M30.7313 24.5646L26.0645 23.401C25.6284 23.2923 25.2301 23.3107 24.8695 23.4564C24.509 23.6021 24.2892 23.8334 24.2102 24.1502C24.1312 24.4671 24.2182 24.7763 24.4712 25.0778C24.7242 25.3793 25.0688 25.5844 25.5049 25.6932L31.6807 27.2582C32.1168 27.3669 32.5066 27.3519 32.8502 27.2131C33.1935 27.0744 33.4047 26.8466 33.4837 26.5298L35.6246 17.943C35.7036 17.6262 35.6196 17.3206 35.3727 17.0263C35.1256 16.7318 34.7899 16.5373 34.3658 16.4429C33.9587 16.3415 33.5757 16.368 33.2169 16.5224C32.8578 16.6769 32.6415 16.902 32.568 17.1979L30.7313 24.5646ZM41.5664 35.5872C41.4198 35.6179 41.26 35.6398 41.087 35.6527C36.7141 36.0994 32.4042 35.4497 28.1574 33.7036C23.9103 31.9576 20.5071 29.5596 17.9477 26.5095L12.7609 20.3281C12.386 19.8813 12.2035 19.4136 12.2134 18.9253C12.223 18.437 12.404 18.0124 12.7564 17.6515L20.0081 10.6755C20.2398 10.4585 20.5016 10.291 20.7934 10.1731C21.0852 10.0552 21.4243 9.97989 21.8107 9.94716L34.1334 9.0146C34.7597 8.9801 35.3812 9.08046 35.9979 9.31567C36.6149 9.55077 37.1109 9.89176 37.4859 10.3386L42.6726 16.52C45.232 19.5701 46.5575 22.8076 46.6493 26.2324C46.7413 29.6571 45.428 32.5787 42.7096 34.9971C42.608 35.0951 42.5018 35.1808 42.3908 35.2541C42.2799 35.3274 42.1514 35.3936 42.0054 35.4526C41.8594 35.5116 41.713 35.5564 41.5664 35.5872Z" fill="#389F5A"/>
</g>
<defs>
<clipPath id="clip0_2267_504">
<rect width="40" height="40" fill="white" transform="matrix(0.927184 -0.374607 0.642788 0.766044 0 14.9843)"/>
</clipPath>
</defs>
</svg>
