<svg width="57" height="57" viewBox="0 0 57 57" fill="none" xmlns="http://www.w3.org/2000/svg">
<g clip-path="url(#clip0_2267_351)">
<path d="M22.7085 46.7934C18.1068 45.1186 15.3462 42.4369 14.4265 38.7485C13.507 35.0606 14.6858 31.3968 17.9627 27.7574C21.2256 24.1336 25.5923 21.6384 31.0629 20.272C36.5335 18.906 41.5696 19.0605 46.1713 20.7353C50.7539 22.4032 53.5055 25.0833 54.4261 28.7755C55.3464 32.468 54.1751 36.1262 50.9122 39.75C47.6352 43.3895 43.2611 45.8901 37.7897 47.252C32.3182 48.6142 27.2911 48.4614 22.7085 46.7934ZM36.2126 33.8168L40.8442 28.6729C41.1163 28.3707 41.2157 28.0651 41.1424 27.7562C41.0693 27.4471 40.8373 27.2214 40.4463 27.079C40.0552 26.9367 39.6345 26.9208 39.184 27.0313C38.7339 27.142 38.3674 27.3544 38.0846 27.6685L33.1332 33.1677C32.9848 33.3324 32.8795 33.5115 32.8172 33.7048C32.7555 33.8981 32.7467 34.1011 32.7908 34.314L34.3435 40.5336C34.4177 40.8512 34.6412 41.0778 35.0139 41.2135C35.3866 41.3491 35.8149 41.3593 36.2988 41.2441C36.7829 41.1285 37.1558 40.9255 37.4172 40.6351C37.6787 40.3447 37.7696 40.0328 37.6897 39.6992L36.2126 33.8168ZM14.0492 18.5657C13.6582 18.4234 13.4251 18.1988 13.3499 17.892C13.2748 17.5856 13.3772 17.2771 13.6569 16.9664C13.9369 16.6554 14.302 16.4448 14.7522 16.3346C15.2028 16.2245 15.6236 16.2406 16.0146 16.3829L21.6188 18.4227C22.0098 18.565 22.2427 18.7895 22.3175 19.0962C22.393 19.4028 22.2908 19.7114 22.0111 20.0221C21.7311 20.333 21.3658 20.5435 20.9152 20.6536C20.465 20.7639 20.0444 20.7478 19.6534 20.6055L14.0492 18.5657ZM5.59574 24.715C5.20474 24.5727 4.97165 24.3482 4.89648 24.0413C4.82141 23.7349 4.92375 23.4264 5.20347 23.1157C5.48346 22.8047 5.84856 22.5941 6.29877 22.4839C6.74935 22.3738 7.17014 22.3899 7.56115 22.5322L15.3621 25.3715C15.7531 25.5139 15.986 25.7384 16.0608 26.0451C16.1362 26.3516 16.0341 26.6602 15.7543 26.9709C15.4743 27.2819 15.1091 27.4924 14.6585 27.6025C14.2083 27.7127 13.7877 27.6967 13.3967 27.5543L5.59574 24.715ZM1.53566 32.4634C1.14465 32.3211 0.91156 32.0965 0.83639 31.7897C0.761324 31.4833 0.863654 31.1747 1.14338 30.8641C1.42337 30.5531 1.78847 30.3425 2.23868 30.2323C2.68926 30.1222 3.11005 30.1383 3.50106 30.2806L9.10531 32.3204C9.49631 32.4627 9.72922 32.6872 9.80402 32.9939C9.87945 33.3004 9.7773 33.6091 9.49757 33.9197C9.21758 34.2307 8.8523 34.4412 8.40172 34.5513C7.95151 34.6615 7.53091 34.6455 7.1399 34.5032L1.53566 32.4634Z" fill="url(#paint0_linear_2267_351)"/>
</g>
<defs>
<linearGradient id="paint0_linear_2267_351" x1="39.7834" y1="18.4103" x2="28.6638" y2="48.961" gradientUnits="userSpaceOnUse">
<stop stop-color="#A491D4"/>
<stop offset="0.658654" stop-color="#674EA0"/>
</linearGradient>
<clipPath id="clip0_2267_351">
<rect width="56.1035" height="56.1035" fill="white"/>
</clipPath>
</defs>
</svg>
