<svg width="40" height="40" viewBox="0 0 40 40" fill="none" xmlns="http://www.w3.org/2000/svg">
<path d="M18.5554 33.3614C18.9999 33.6392 19.4814 33.7711 20 33.7572C20.5186 33.7434 21.0001 33.6067 21.4446 33.3472L29.3333 28.5835C27.9814 27.5371 26.5138 26.7246 24.9304 26.146C23.3471 25.5674 21.7036 25.2781 20 25.2781C18.2964 25.2781 16.6506 25.5674 15.0625 26.146C13.4744 26.7246 11.9907 27.5232 10.6112 28.5418L18.5554 33.3614ZM23.9304 19.7639C25.0138 18.6806 25.5554 17.3704 25.5554 15.8335C25.5554 14.2966 25.0138 12.9864 23.9304 11.9031C22.8471 10.8197 21.5369 10.2781 20 10.2781C18.4631 10.2781 17.1529 10.8197 16.0696 11.9031C14.9863 12.9864 14.4446 14.2966 14.4446 15.8335C14.4446 17.3704 14.9863 18.6806 16.0696 19.7639C17.1529 20.8472 18.4631 21.3889 20 21.3889C21.5369 21.3889 22.8471 20.8472 23.9304 19.7639ZM18.5554 36.6252L6.33333 29.1531C5.9075 28.9031 5.57875 28.565 5.34708 28.1389C5.11569 27.7131 5 27.2547 5 26.7639V13.2364C5 12.7456 5.11569 12.2872 5.34708 11.8614C5.57875 11.4353 5.9075 11.0972 6.33333 10.8472L18.5554 3.37516C18.9999 3.09739 19.4814 2.9585 20 2.9585C20.5186 2.9585 21.0001 3.09739 21.4446 3.37516L33.6667 10.8472C34.0925 11.0972 34.4212 11.4353 34.6529 11.8614C34.8843 12.2872 35 12.7456 35 13.2364V26.7639C35 27.2547 34.8843 27.7131 34.6529 28.1389C34.4212 28.565 34.0925 28.9031 33.6667 29.1531L21.4446 36.6252C21.0001 36.9029 20.5186 37.0418 20 37.0418C19.4814 37.0418 18.9999 36.9029 18.5554 36.6252Z" fill="#963D3F"/>
</svg>
