<svg width="24" height="24" viewBox="0 0 24 24" fill="none" xmlns="http://www.w3.org/2000/svg">
<path d="M10.75 18.8463C11.3385 18.8463 11.835 18.644 12.2395 18.2395C12.644 17.835 12.8462 17.3385 12.8462 16.75V12.8845H14.827C15.0718 12.8845 15.2804 12.7999 15.4528 12.6308C15.6252 12.4616 15.7115 12.2513 15.7115 12C15.7115 11.7552 15.6252 11.5465 15.4528 11.374C15.2804 11.2017 15.0718 11.1155 14.827 11.1155H12.8462C12.6012 11.1155 12.3926 11.2017 12.2203 11.374C12.0477 11.5465 11.9615 11.7552 11.9615 12V15.0963C11.791 14.9436 11.6048 14.8317 11.403 14.7605C11.201 14.6893 10.9833 14.6538 10.75 14.6538C10.1615 14.6538 9.665 14.856 9.2605 15.2605C8.856 15.665 8.65375 16.1615 8.65375 16.75C8.65375 17.3385 8.856 17.835 9.2605 18.2395C9.665 18.644 10.1615 18.8463 10.75 18.8463ZM6.30775 21.5C5.80258 21.5 5.375 21.325 5.025 20.975C4.675 20.625 4.5 20.1974 4.5 19.6923V4.30775C4.5 3.80258 4.675 3.375 5.025 3.025C5.375 2.675 5.80258 2.5 6.30775 2.5H13.502C13.743 2.5 13.9748 2.54683 14.1973 2.6405C14.4196 2.734 14.6128 2.86283 14.777 3.027L18.973 7.223C19.1372 7.38717 19.266 7.58042 19.3595 7.80275C19.4532 8.02525 19.5 8.257 19.5 8.498V19.6923C19.5 20.1974 19.325 20.625 18.975 20.975C18.625 21.325 18.1974 21.5 17.6923 21.5H6.30775ZM13.5 7.596V4H6.30775C6.23075 4 6.16025 4.03208 6.09625 4.09625C6.03208 4.16025 6 4.23075 6 4.30775V19.6923C6 19.7693 6.03208 19.8398 6.09625 19.9038C6.16025 19.9679 6.23075 20 6.30775 20H17.6923C17.7692 20 17.8398 19.9679 17.9038 19.9038C17.9679 19.8398 18 19.7693 18 19.6923V8.5H14.404C14.1462 8.5 13.9311 8.41375 13.7587 8.24125C13.5863 8.06892 13.5 7.85383 13.5 7.596Z" fill="white"/>
</svg>
