<svg width="39" height="38" viewBox="0 0 39 38" fill="none" xmlns="http://www.w3.org/2000/svg">
<g filter="url(#filter0_d_2279_386)">
<rect width="38.6339" height="37.8101" rx="18.9051" fill="white"/>
<path d="M14.5051 24.4313C14.1592 24.4313 13.8644 24.3094 13.6206 24.0656C13.3769 23.8219 13.255 23.5271 13.255 23.1812V17.0874L12.2551 17.8562C12.1176 17.9646 11.9644 18.0063 11.7957 17.9813C11.6269 17.9563 11.4884 17.8729 11.38 17.7313C11.2716 17.5938 11.231 17.4417 11.2581 17.2749C11.2853 17.1083 11.3676 16.9708 11.5051 16.8624L18.505 11.4999C18.6175 11.4167 18.7373 11.3542 18.8644 11.3124C18.9914 11.2708 19.1237 11.25 19.2612 11.25C19.3987 11.25 19.5299 11.2708 19.6549 11.3124C19.7799 11.3542 19.8987 11.4167 20.0112 11.4999L26.1925 16.2313C26.405 16.3896 26.4686 16.5958 26.3832 16.8501C26.2977 17.1042 26.1237 17.2333 25.8612 17.2374C25.4362 17.2667 25.0164 17.2928 24.6019 17.3156C24.1873 17.3385 23.78 17.4416 23.38 17.625C22.655 17.3125 21.9248 17.2239 21.1894 17.3593C20.4539 17.4948 19.8029 17.8459 19.2363 18.4125C18.6696 18.9791 18.3186 19.6302 18.1831 20.3657C18.0477 21.1011 18.1363 21.8313 18.4488 22.5563C18.3488 22.7812 18.2738 23.0042 18.2238 23.2251C18.1738 23.4458 18.1425 23.6708 18.13 23.9001C18.1175 24.0501 18.0623 24.1761 17.9644 24.2781C17.8664 24.3802 17.7466 24.4313 17.605 24.4313H14.5051ZM23.38 26.0625C22.8384 26.4334 22.2686 26.5969 21.6706 26.5532C21.0727 26.5094 20.5529 26.2667 20.1113 25.8249C19.6696 25.3833 19.4268 24.8614 19.3831 24.2593C19.3393 23.6573 19.5029 23.0896 19.8738 22.5563C19.5029 22.0146 19.3393 21.4448 19.3831 20.8468C19.4268 20.2489 19.6696 19.7292 20.1113 19.2876C20.5529 18.8458 21.0748 18.6031 21.6769 18.5593C22.2789 18.5156 22.8466 18.6791 23.38 19.05C23.9216 18.6791 24.4914 18.5156 25.0894 18.5593C25.6873 18.6031 26.2071 18.8458 26.6487 19.2876C27.0904 19.7292 27.3332 20.2511 27.3769 20.8532C27.4207 21.4552 27.2571 22.0229 26.8863 22.5563C27.2571 23.0979 27.4207 23.6677 27.3769 24.2657C27.3332 24.8636 27.0904 25.3833 26.6487 25.8249C26.2071 26.2667 25.6852 26.5094 25.0831 26.5532C24.4811 26.5969 23.9134 26.4334 23.38 26.0625ZM23.9581 23.1343C24.1143 22.9781 24.1924 22.7854 24.1924 22.5563C24.1924 22.3271 24.1143 22.1344 23.9581 21.9782C23.8018 21.8219 23.6091 21.7438 23.38 21.7438C23.1509 21.7438 22.9582 21.8219 22.8019 21.9782C22.6457 22.1344 22.5676 22.3271 22.5676 22.5563C22.5676 22.7854 22.6457 22.9781 22.8019 23.1343C22.9582 23.2906 23.1509 23.3687 23.38 23.3687C23.6091 23.3687 23.8018 23.2906 23.9581 23.1343Z" fill="#02256F"/>
</g>
<defs>
<filter id="filter0_d_2279_386" x="-11.25" y="-8.25" width="61.1339" height="60.3101" filterUnits="userSpaceOnUse" color-interpolation-filters="sRGB">
<feFlood flood-opacity="0" result="BackgroundImageFix"/>
<feColorMatrix in="SourceAlpha" type="matrix" values="0 0 0 0 0 0 0 0 0 0 0 0 0 0 0 0 0 0 127 0" result="hardAlpha"/>
<feOffset dy="3"/>
<feGaussianBlur stdDeviation="5.625"/>
<feComposite in2="hardAlpha" operator="out"/>
<feColorMatrix type="matrix" values="0 0 0 0 0 0 0 0 0 0 0 0 0 0 0 0 0 0 0.15 0"/>
<feBlend mode="normal" in2="BackgroundImageFix" result="effect1_dropShadow_2279_386"/>
<feBlend mode="normal" in="SourceGraphic" in2="effect1_dropShadow_2279_386" result="shape"/>
</filter>
</defs>
</svg>
