<svg width="24" height="24" viewBox="0 0 24 24" fill="none" xmlns="http://www.w3.org/2000/svg">
<path d="M10.3418 15.8668L15.8333 12.325C15.9611 12.2362 16.025 12.1168 16.025 11.9668C16.025 11.8168 15.9611 11.6972 15.8333 11.6082L10.3418 8.06675C10.1973 7.97225 10.0542 7.96667 9.9125 8.05C9.77083 8.13333 9.7 8.25833 9.7 8.425V15.5083C9.7 15.6749 9.77083 15.7999 9.9125 15.8833C10.0542 15.9666 10.1973 15.9611 10.3418 15.8668ZM3.66675 20C3.21675 20 2.82642 19.8348 2.49575 19.5042C2.16525 19.1736 2 18.7833 2 18.3333V5.66675C2 5.21675 2.16525 4.82642 2.49575 4.49575C2.82642 4.16525 3.21675 4 3.66675 4H20.3333C20.7833 4 21.1736 4.16525 21.5043 4.49575C21.8348 4.82642 22 5.21675 22 5.66675V18.3333C22 18.7833 21.8348 19.1736 21.5043 19.5042C21.1736 19.8348 20.7833 20 20.3333 20H3.66675Z" fill="#02256F"/>
</svg>
